HIERARCHY
ROOT pelvis
{
  OFFSET 0 100 0
  CHANNELS 6 Xposition Yposition Zposition Zrotation Xrotation Yrotation
  JOINT pelvis_right_femur
  {
    OFFSET -10.78128 -3.44521 -0.5502486
    CHANNELS 3 Zrotation Xrotation Yrotation
    JOINT right_femur_tibia
    {
      OFFSET -0.8047443 -44.0398 -0.1307829
      CHANNELS 3 Zrotation Xrotation Yrotation
      JOINT right_tibia_foot
      {
        OFFSET 3.006224 -47.83518 -5
        CHANNELS 3 Zrotation Xrotation Yrotation
        End Site
        {
          OFFSET 0 -5 15
        }
      }
    }
  }
  JOINT pelvis_left_femur
  {
    OFFSET 10.78128 -3.44521 -0.5502486
    CHANNELS 3 Zrotation Xrotation Yrotation
    JOINT left_femur_tibia
    {
      OFFSET 0.8047443 -44.0398 -0.1307829
      CHANNELS 3 Zrotation Xrotation Yrotation
      JOINT left_tibia_foot
      {
        OFFSET -4.370144 -48.10324 -4.275266
        CHANNELS 3 Zrotation Xrotation Yrotation
        End Site
        {
          OFFSET 0 -5 15
        }
      }
    }
  }
  JOINT pelvis_spine1
  {
    OFFSET 0 6.468898 -3.129235
    CHANNELS 3 Zrotation Xrotation Yrotation
    JOINT spine1
    {
      OFFSET 0 23.15396 4.99043
      CHANNELS 3 Zrotation Xrotation Yrotation
      JOINT spine2
      {
        OFFSET 0 20.79997 -5.064912
        CHANNELS 3 Zrotation Xrotation Yrotation
        JOINT neck
        {
          OFFSET 0 14.38658 9.616178
          CHANNELS 3 Zrotation Xrotation Yrotation
          End Site
          {
            OFFSET 0 20 0
          }
        }
      }
      JOINT right_manubrium
      {
        OFFSET -5.722621 16.35077 3.967754
        CHANNELS 3 Zrotation Xrotation Yrotation
        JOINT right_clavicle
        {
          OFFSET -13.16364 1.694482 -4.693211
          CHANNELS 3 Zrotation Xrotation Yrotation
          JOINT right_humerus
          {
            OFFSET -28.5034 -0.3100689 -2.792744
            CHANNELS 3 Zrotation Xrotation Yrotation
            JOINT right_radius
            {
              OFFSET -25.15693 0.02248979 -1.271978
              CHANNELS 3 Zrotation Xrotation Yrotation
              End Site
              {
                OFFSET -15 0 0
              }
            }
          }
        }
      }
      JOINT left_manubrium
      {
        OFFSET 5.722621 16.35077 3.967754
        CHANNELS 3 Zrotation Xrotation Yrotation
        JOINT left_clavicle
        {
          OFFSET 13.16364 1.694482 -4.693211
          CHANNELS 3 Zrotation Xrotation Yrotation
          JOINT left_humerus
          {
            OFFSET 29.39168 -1.063119 -2.237045
            CHANNELS 3 Zrotation Xrotation Yrotation
            JOINT left_radius
            {
              OFFSET 24.59957 -0.9528479 0.9047498
              CHANNELS 3 Zrotation Xrotation Yrotation
              End Site
              {
                OFFSET 15 -0 -0
              }
            }
          }
        }
      }
    }
  }
}
MOTION
Frames: 15
Frame Time: 0.0416666666667
0 103.5113 0 0.7371365 -1.909156 0.8223878 0.9642945 -21.68166 2.594974 -0 34.97201 -0 -4.413422 -4.664187 -3.464113 -6.109491 12.39036 -17.13652 0 -5.499051 0 2.526158 -21.82294 19.83524 -3.532128 -1.452679 2.719854 1.522732 8.772593 -7.359023 1.295639 22.01504 7.390855 3.245724 -21.73039 8.916697 3.863484 -18.22022 10.50957 86.91345 30.99268 -17.90933 -0 0 14.17004 -15.22493 10.15275 8.822737 6.439539 -20.05731 -3.404648 -89.43867 26.61982 16.76733 0 0 -18.59005 3.650435 14.79967 9.306505
0.5846418 102.4114 3.694132 0.7633319 -1.800517 1.630003 0.9228856 -21.7579 2.604227 -0 35.06039 -0 -4.466258 -4.79962 -3.391885 -6.122873 12.38778 -17.30358 0 -6.470114 0 2.728023 -21.9788 20.00356 -3.570919 -1.489424 2.718946 1.533196 8.749929 -7.367237 1.280529 21.99417 7.412968 3.256507 -21.81349 8.940456 3.88269 -18.33052 10.50804 86.8354 31.07898 -17.83435 -0 0 14.32876 -15.13653 10.08916 8.830313 6.463852 -20.04561 -3.37722 -89.56106 26.68202 16.96053 0 0 -18.51903 3.660429 14.87975 9.298637
1.066734 101.2339 7.355226 0.4694729 -1.325358 2.277241 1.792012 -24.03223 2.528073 -0 29.81188 -0 -5.249488 -5.581246 -3.381218 -5.720327 13.5227 -17.03141 0 -3.791922 0 2.532214 -21.99256 19.36871 -3.220925 -1.569162 2.654973 1.878374 8.848639 -7.783262 1.211825 21.82906 7.325143 3.297426 -22.23862 8.777438 3.764429 -18.2113 10.62192 87.54723 31.07661 -19.26159 -0 0 13.56011 -14.38887 10.15267 8.191173 6.713718 -20.89228 -3.438523 -89.23032 26.46399 16.28171 0 0 -20.1204 4.33277 15.22467 8.452743
1.455097 99.9004 10.89934 0.1705536 -0.7470004 2.800995 2.567562 -26.3025 2.45287 -0 24.85542 -0 -6.144368 -6.483768 -3.241133 -5.346332 14.59458 -17.01484 0 -2.750991 0 2.705131 -22.22299 19.02954 -2.936415 -1.715743 2.591198 2.22193 8.935562 -8.195528 1.118287 21.6407 7.267671 3.355584 -22.77796 8.644337 3.647784 -18.30094 10.7358 88.15061 31.12977 -20.51957 -0 0 13.06449 -13.56787 10.09057 7.601578 6.999794 -21.72319 -3.476364 -89.10595 26.2646 15.94719 0 0 -21.52209 5.0964 15.70082 7.495249
1.749005 98.46778 14.40749 -0.07691022 -0.3977864 3.213947 3.254035 -28.06003 2.398714 -0 20.70933 -0 -6.822456 -7.050864 -3.21203 -5.029747 15.47197 -16.80925 0 -0.7789168 0 2.619405 -22.22458 18.55868 -2.658394 -1.794725 2.54023 2.489595 9.035818 -8.522428 1.058843 21.51209 7.194081 3.390002 -23.12102 8.506101 3.525149 -18.25093 10.83158 88.73883 31.05066 -21.62855 -0 0 12.47535 -13.00662 10.1068 7.113446 7.205549 -22.41945 -3.540813 -88.86803 26.01333 15.45539 0 0 -22.74223 5.72649 15.99193 6.700817
1.951926 96.98642 17.93563 -0.2858509 -0.198009 3.522624 3.86631 -29.48044 2.336763 -0 17.13545 -0 -7.381788 -7.376547 -3.233464 -4.75748 16.22948 -16.49524 -0 1.656256 -0 2.410883 -22.08972 18.02923 -2.389501 -1.838075 2.494375 2.705222 9.152298 -8.793004 1.018854 21.42268 7.111724 3.411457 -23.34332 8.364386 3.390186 -18.13156 10.91671 89.3153 30.86935 -22.62445 -0 0 11.84056 -12.6204 10.16124 6.698804 7.362543 -23.03486 -3.630043 -88.5718 25.70444 14.88777 0 0 -23.8193 6.300568 16.18026 5.970833
2.069613 95.52103 21.56469 -0.4373612 -0.202785 3.736235 4.387464 -30.44821 2.272899 -0 14.32215 -0 -7.740195 -7.386208 -3.346007 -4.545972 16.82962 -16.00715 -0 4.93368 -0 1.97243 -21.74761 17.38332 -2.128185 -1.81928 2.45685 2.851628 9.281018 -8.986565 1.010167 21.38822 7.016358 3.412344 -23.38617 8.219504 3.251574 -17.88005 10.98509 89.87047 30.57377 -23.48218 -0 0 11.11482 -12.46758 10.29322 6.37373 7.444772 -23.52641 -3.746799 -88.17428 25.34827 14.17255 0 0 -24.73453 6.74188 16.20563 5.400071
2.110174 94.14576 25.38669 -0.5251563 -0.4328079 3.863887 4.812435 -30.91613 2.195565 -0 12.3007 -0 -7.879575 -7.052516 -3.556895 -4.39803 17.2507 -15.31373 -0 9.197785 -0 1.277559 -21.16146 16.60623 -1.870602 -1.73093 2.429577 2.922963 9.425964 -9.096245 1.036283 21.41376 6.904404 3.39095 -23.23035 8.068476 3.106662 -17.48061 11.03683 90.40327 30.15082 -24.19254 -0 0 10.28236 -12.57192 10.51648 6.14502 7.444248 -23.88653 -3.896471 -87.66584 24.93141 13.29098 0 0 -25.4808 7.036605 16.0541 5.00307
2.083872 92.94655 29.50609 -0.5417859 -0.9167087 3.914822 5.135823 -30.78325 2.10484 -0 11.13169 -0 -7.760075 -6.359105 -3.883874 -4.314501 17.42665 -14.37353 -0 14.64387 -0 0.2824695 -20.2737 15.68504 -1.613254 -1.55986 2.42044 2.909206 9.587288 -9.107662 1.10327 21.50615 6.770703 3.343629 -22.84614 7.908908 2.956943 -16.91272 11.07121 90.89798 29.59347 -24.7257 -0 0 9.337733 -12.96841 10.85199 6.028328 7.346743 -24.09158 -4.079546 -87.04159 24.4497 12.23125 0 0 -26.03545 7.145322 15.69728 4.827482
2.003472 92.01972 34.03372 -0.4833646 -1.67625 3.897539 5.356415 -29.90755 2.004086 -0 10.83684 -0 -7.35072 -5.325976 -4.337538 -4.283809 17.23728 -13.15095 -0 21.39618 -0 -1.034325 -19.01924 14.63307 -1.352294 -1.296288 2.444793 2.800099 9.76572 -9.00315 1.215889 21.66912 6.608233 3.26732 -22.2109 7.736915 2.801655 -16.17791 11.08964 91.32401 28.89906 -25.03025 -0 0 8.307578 -13.69135 11.31502 6.047984 7.139557 -24.1161 -4.292358 -86.31989 23.89707 11.02185 0 0 -26.35632 7.033566 15.11252 4.915386
1.885084 91.46523 39.07302 -0.3523222 -2.71003 3.818032 5.481334 -28.09321 1.910706 -0 11.36701 -0 -6.633836 -4.054972 -4.913344 -4.270176 16.47517 -11.63351 -0 29.41344 -0 -2.659384 -17.33796 13.50806 -1.085891 -0.9365193 2.531044 2.587507 9.957205 -8.761334 1.376099 21.89897 6.409001 3.159865 -21.32018 7.548734 2.641945 -15.31639 11.09586 91.61934 28.08805 -25.0197 -0 0 7.281222 -14.76091 11.90996 6.238508 6.813585 -23.928 -4.518576 -85.55942 23.2851 9.764257 0 0 -26.37297 6.66248 14.28799 5.316948
1.749609 91.36529 44.69135 -0.1653463 -3.958818 3.67584 5.531817 -25.11831 1.858333 -0 12.50753 -0 -5.642917 -2.794396 -5.56104 -4.194331 14.82929 -9.869294 -0 38.26371 -0 -4.500915 -15.21646 12.44168 -0.8171673 -0.4950792 2.724734 2.27357 10.15021 -8.364045 1.577237 22.17504 6.166536 3.022748 -20.2186 7.341434 2.480711 -14.44562 11.09798 91.67821 27.22329 -24.56815 -0 0 6.455377 -16.15028 12.61187 6.638847 6.373886 -23.50003 -4.721503 -84.88558 22.65972 8.687134 0 0 -25.98379 6.007398 13.24949 6.068616
1.62426 91.74088 50.87655 0.03701444 -5.262178 3.457657 5.545123 -20.8302 1.891653 -0 13.77673 -0 -4.516247 -1.987027 -6.142991 -3.925433 11.92903 -8.010946 -0 46.85425 -0 -6.343357 -12.76062 11.65217 -0.5585897 -0.02085878 3.085 1.883533 10.32336 -7.811527 1.79603 22.44905 5.881803 2.864924 -19.0401 7.114865 2.322644 -13.79576 11.10964 91.35176 26.42673 -23.52887 -0 0 6.162986 -17.73685 13.34354 7.272404 5.854761 -22.83349 -4.839887 -84.50714 22.11743 8.183445 0 0 -25.0742 5.088202 12.09885 7.155289
1.542481 92.49585 57.50034 0.1909031 -6.354609 3.133647 5.561801 -15.32385 2.038129 -0 14.45768 -0 -3.524743 -2.179217 -6.423871 -3.326037 7.527152 -6.315153 -0 53.39871 -0 -7.843238 -10.25617 11.39388 -0.3339383 0.3948726 3.65925 1.473828 10.45247 -7.142684 1.988733 22.647 5.570984 2.705684 -18.01907 6.873801 2.170149 -13.68673 11.14813 90.49754 25.85236 -21.80143 -0 0 6.803908 -19.27862 13.96803 8.113878 5.32955 -21.99267 -4.805994 -84.6834 21.7759 8.739723 0 0 -23.5732 4.011593 11.03926 8.451878
1.539369 93.39816 64.334 0.2386394 -6.974139 2.669243 5.597895 -9.087292 2.270282 -0 13.96248 -0 -2.969861 -3.694743 -6.180431 -2.367477 1.794027 -5.038769 -0 56.09534 -0 -8.644221 -8.104861 11.81911 -0.1719038 0.646791 4.435149 1.114934 10.52854 -6.438569 2.105512 22.70284 5.267355 2.570572 -17.40383 6.630127 2.018477 -14.37257 11.22548 89.09101 25.59164 -19.43788 -0 0 8.607416 -20.49455 14.33519 9.072229 4.891721 -21.11173 -4.593525 -85.6002 21.67375 10.66744 0 0 -21.53463 2.975115 10.32138 9.708426
